<svg id="Camada_1" data-name="Camada 1" xmlns="http://www.w3.org/2000/svg" viewBox="0 0 552 280"><defs><style>.cls-1{fill:#4d3913;}.cls-2{fill:#ffbf3f;}</style></defs><title>Logo - Ícone</title><path class="cls-1" d="M222.48,225.34c-40,20-115.28,44.19-157.29-15.1C45.91,183,40.33,148.09,51.92,116.81,78.56,44.92,176.53,33.61,232,97c66.55,76.06,86.16,111.12,86.16,111.12l-39.22,29.71-75-97.5a96.9,96.9,0,0,0-32.15-27.17c-14.15-7.32-32.65-12.74-50-5.17-11.78,5.13-20.31,15.85-25.16,27.75-16,39.26,23,71.07,64.7,61.69A136.24,136.24,0,0,0,196.93,182Z"/><path class="cls-2" d="M406.08,256l-32.2-32.2C310.9,160.78,270.78,90,269.1,87l42-23.64c.31.55,26.17,46.06,67.55,94.49,17.18-51.08,42.81-79.62,67.76-107.41,7.32-8.15,14.89-16.58,22.26-25.58L506,55.43c-8.06,9.86-16,18.71-23.7,27.27-30.65,34.12-54.85,61.08-67.7,128.52Z"/></svg>