<svg width="114" height="58" viewBox="0 0 114 58" fill="none" xmlns="http://www.w3.org/2000/svg">
<g id="Logo &#195;&#141;cone">
<path id="Vector" d="M43.716 49.6364C33.8125 54.5881 15.1742 60.5772 4.77305 45.8978C-0.000419816 39.1536 -1.38195 30.5103 1.48757 22.7658C8.08328 4.96681 32.3393 2.16661 46.073 17.8611C62.5499 36.6926 67.405 45.3729 67.405 45.3729L57.6947 52.7287L39.1257 28.5891C36.9974 25.7906 34.2799 23.4941 31.1658 21.8621C27.6624 20.0498 23.0821 18.7079 18.7865 20.5821C15.8699 21.8522 13.758 24.5063 12.5572 27.4526C8.59579 37.1729 18.2517 45.0486 28.576 42.7262C31.6813 41.8799 34.6494 40.5934 37.3901 38.906L43.716 49.6364Z" fill="white"/>
<path id="Vector_2" d="M89.1728 57.2272L81.2006 49.2549C65.6075 33.652 55.6744 16.1278 55.2584 15.385L65.6571 9.53209C65.7338 9.66826 72.1364 20.9359 82.3815 32.9265C86.6351 20.2798 92.9807 13.2137 99.158 6.33327C100.97 4.31543 102.845 2.22828 104.669 0L113.912 7.56872C111.916 10.0099 109.95 12.2011 108.044 14.3204C100.455 22.7681 94.4638 29.443 91.2823 46.1402L89.1728 57.2272Z" fill="#FFBF3F"/>
</g>
</svg>
